<?xml version="1.0" encoding="utf-8"?>
<!-- Generator: Adobe Illustrator 19.2.1, SVG Export Plug-In . SVG Version: 6.00 Build 0)  -->
<svg version="1.1" id="CSS3" xmlns="http://www.w3.org/2000/svg" xmlns:xlink="http://www.w3.org/1999/xlink" x="0px" y="0px"
	 viewBox="0 0 512 512" style="enable-background:new 0 0 512 512;" xml:space="preserve">
<style type="text/css">
	.st0{fill:#4B4B4B;}
</style>
<g>
	<polygon class="st0" points="193.4,261 211.2,261 318.5,261 312,334.4 256,348.7 199.9,334.4 196,290.7 138.8,290.7 146.7,379.7 
		256,407.5 365.2,379.7 380.4,208.8 188.8,208.8 183.7,151.7 385.4,151.7 390.5,94.7 121.4,94.7 136.2,261 	"/>
	<path class="st0" d="M20.3,0l1,10.6L63.2,463L256,512l192.8-49L491.6,0H20.3z M402.5,423.5L256,460.7l-146.5-37.3L74.9,49.7h362.2
		L402.5,423.5z"/>
</g>
</svg>
