<?xml version="1.0" encoding="utf-8"?>
<!-- Generator: Adobe Illustrator 19.2.1, SVG Export Plug-In . SVG Version: 6.00 Build 0)  -->
<svg version="1.1" id="CSS3" xmlns="http://www.w3.org/2000/svg" xmlns:xlink="http://www.w3.org/1999/xlink" x="0px" y="0px"
	 viewBox="0 0 512 512" style="enable-background:new 0 0 512 512;" xml:space="preserve">
<style type="text/css">
	.st0{fill:#4B4B4B;}
</style>
<g>
	<g>
		<path class="st0" d="M20.4,0l1,10.6L63.2,463L256,512l192.8-49L491.6,0H20.4z M402.5,423.5L256,460.7l-146.5-37.3L74.9,49.7h362.2
			L402.5,423.5z"/>
	</g>
	<path class="st0" d="M256.1,426.9l118.1-35.4L388,238.6l2.2-23.6h-0.1l0.1-0.9l-0.1,0.9h-57.3h-77.5l142.9-62l2.6-54.9l-290.7,0.7
		l5.3,54.2H268l-147.2,61.6l5.1,56.4h202l-6.6,76.1v0.1v0.1l-65.2,18.8l-64.8-17.5l-4.8-46.6H129l7.7,89.2L256.1,426.9z"/>
</g>
</svg>
