<?xml version="1.0" encoding="utf-8"?>
<!-- Generator: Adobe Illustrator 19.2.1, SVG Export Plug-In . SVG Version: 6.00 Build 0)  -->
<svg version="1.1" id="レイヤー_1" xmlns="http://www.w3.org/2000/svg" xmlns:xlink="http://www.w3.org/1999/xlink" x="0px"
	 y="0px" viewBox="0 0 310 62" style="enable-background:new 0 0 310 62;" xml:space="preserve">
<style type="text/css">
	.st0{fill:#222222;}
</style>
<g>
	<path class="st0" d="M18,32.2v24.5h5.3c0.5,0,0.8,0.1,1,0.3c0.2,0.2,0.3,0.4,0.3,0.7c0,0.3-0.1,0.5-0.3,0.7c-0.2,0.2-0.6,0.3-1,0.3
		H10.6c-0.5,0-0.8-0.1-1-0.3c-0.2-0.2-0.3-0.4-0.3-0.7c0-0.3,0.1-0.6,0.3-0.7c0.2-0.2,0.6-0.3,1-0.3h5.3V32.2H7.5v7.1
		c0,0.5-0.1,0.9-0.3,1.1c-0.2,0.2-0.4,0.3-0.7,0.3c-0.3,0-0.5-0.1-0.7-0.3c-0.2-0.2-0.3-0.6-0.3-1.1v-9.2h23v9.2
		c0,0.5-0.1,0.9-0.3,1.1c-0.2,0.2-0.4,0.3-0.7,0.3c-0.3,0-0.6-0.1-0.7-0.3c-0.2-0.2-0.3-0.6-0.3-1.1v-7.1H18z"/>
	<path class="st0" d="M54.6,48.2c0,3.1-1.1,5.8-3.4,8c-2.2,2.2-4.9,3.3-8.1,3.3c-3.2,0-5.9-1.1-8.1-3.3c-2.2-2.2-3.3-4.9-3.3-8
		c0-3.1,1.1-5.8,3.3-8c2.2-2.2,4.9-3.3,8.1-3.3c3.2,0,5.9,1.1,8.1,3.3C53.5,42.4,54.6,45.1,54.6,48.2z M52.6,48.2
		c0-2.6-0.9-4.8-2.7-6.6s-4-2.7-6.7-2.7c-2.6,0-4.8,0.9-6.7,2.7c-1.8,1.8-2.7,4-2.7,6.6c0,2.5,0.9,4.7,2.7,6.5
		c1.8,1.8,4,2.7,6.7,2.7c2.6,0,4.8-0.9,6.7-2.7C51.7,53,52.6,50.8,52.6,48.2z"/>
	<path class="st0" d="M66.6,37.6v5.2c2.7-2.4,4.7-4,6-4.7c1.3-0.7,2.6-1,3.7-1c1.2,0,2.4,0.4,3.4,1.2c1,0.8,1.6,1.4,1.6,1.9
		c0,0.3-0.1,0.6-0.3,0.8c-0.2,0.2-0.5,0.3-0.8,0.3c-0.2,0-0.3,0-0.4-0.1c-0.1-0.1-0.3-0.2-0.6-0.5c-0.6-0.6-1.1-1-1.5-1.2
		c-0.4-0.2-0.8-0.3-1.2-0.3c-0.9,0-2,0.4-3.2,1.1c-1.3,0.7-3.4,2.5-6.6,5.2v11.2h9.1c0.5,0,0.9,0.1,1.1,0.3c0.2,0.2,0.3,0.4,0.3,0.7
		c0,0.3-0.1,0.5-0.3,0.7c-0.2,0.2-0.6,0.3-1.1,0.3H59.6c-0.5,0-0.8-0.1-1-0.3c-0.2-0.2-0.3-0.4-0.3-0.7c0-0.3,0.1-0.5,0.3-0.7
		c0.2-0.2,0.6-0.3,1.1-0.3h5V39.7h-3.8c-0.5,0-0.8-0.1-1-0.3c-0.2-0.2-0.3-0.4-0.3-0.8c0-0.3,0.1-0.5,0.3-0.7
		c0.2-0.2,0.6-0.3,1.1-0.3H66.6z"/>
	<path class="st0" d="M105.1,58.7v-3c-2.8,2.5-5.8,3.8-9.1,3.8c-2,0-3.5-0.5-4.6-1.6c-1.4-1.4-2-3.1-2-5V39.7h-2.8
		c-0.5,0-0.8-0.1-1-0.3c-0.2-0.2-0.3-0.4-0.3-0.8c0-0.3,0.1-0.5,0.3-0.7c0.2-0.2,0.6-0.3,1-0.3h4.8v15.3c0,1.3,0.4,2.4,1.3,3.3
		c0.8,0.9,1.9,1.3,3.2,1.3c3.3,0,6.4-1.5,9.2-4.6V39.7h-3.8c-0.5,0-0.8-0.1-1-0.3c-0.2-0.2-0.3-0.4-0.3-0.8c0-0.3,0.1-0.5,0.3-0.7
		c0.2-0.2,0.6-0.3,1-0.3h5.8v19.1h1.7c0.5,0,0.8,0.1,1,0.3c0.2,0.2,0.3,0.4,0.3,0.7c0,0.3-0.1,0.5-0.3,0.7c-0.2,0.2-0.6,0.3-1,0.3
		H105.1z"/>
	<path class="st0" d="M164.3,44.5c0,2.7-0.6,5.3-1.7,7.6c-1.1,2.3-2.6,4.2-4.6,5.5c-1.9,1.3-4,2-6.3,2c-3.3,0-6.2-1.4-8.7-4.2
		s-3.8-6.4-3.8-10.8c0-4.4,1.3-8,3.8-10.8c2.5-2.8,5.4-4.2,8.7-4.2c2.2,0,4.3,0.7,6.3,2c1.9,1.3,3.5,3.1,4.6,5.4
		C163.8,39.2,164.3,41.8,164.3,44.5z M162.3,44.5c0-3.3-1-6.3-2.9-9c-1.9-2.7-4.4-4-7.5-4c-2.9,0-5.3,1.3-7.4,3.8
		c-2,2.5-3.1,5.6-3.1,9.2c0,3.8,1.1,6.9,3.2,9.3c2.1,2.4,4.6,3.6,7.2,3.6c3.1,0,5.6-1.3,7.5-4C161.3,50.9,162.3,47.9,162.3,44.5z"/>
	<path class="st0" d="M175.4,37.6h11.1c0.5,0,0.8,0.1,1,0.3c0.2,0.2,0.3,0.4,0.3,0.8c0,0.3-0.1,0.5-0.3,0.7c-0.2,0.2-0.6,0.3-1,0.3
		h-11.1v13.6c0,1.2,0.5,2.2,1.4,3c1,0.8,2.3,1.2,4.2,1.2c1.4,0,2.9-0.2,4.5-0.6s2.9-0.9,3.8-1.4c0.3-0.2,0.6-0.3,0.8-0.3
		c0.3,0,0.5,0.1,0.7,0.3c0.2,0.2,0.3,0.4,0.3,0.7c0,0.2-0.1,0.5-0.3,0.7c-0.5,0.5-1.8,1.1-3.8,1.7c-2,0.6-3.9,0.9-5.8,0.9
		c-2.4,0-4.3-0.6-5.7-1.7s-2.1-2.6-2.1-4.5V39.7h-3.8c-0.5,0-0.8-0.1-1-0.3c-0.2-0.2-0.3-0.4-0.3-0.8c0-0.3,0.1-0.5,0.3-0.7
		c0.2-0.2,0.6-0.3,1-0.3h3.8v-6.1c0-0.5,0.1-0.8,0.3-1c0.2-0.2,0.4-0.3,0.7-0.3c0.3,0,0.6,0.1,0.8,0.3c0.2,0.2,0.3,0.6,0.3,1V37.6z"
		/>
	<path class="st0" d="M213.5,38.9c0-0.5,0.1-0.8,0.3-1c0.2-0.2,0.4-0.3,0.7-0.3c0.3,0,0.6,0.1,0.8,0.3c0.2,0.2,0.3,0.6,0.3,1.1v3.5
		c0,0.5-0.1,0.8-0.3,1c-0.2,0.2-0.4,0.3-0.8,0.3c-0.3,0-0.5-0.1-0.7-0.3c-0.2-0.2-0.3-0.5-0.3-0.9c-0.1-1-0.6-1.8-1.5-2.4
		c-1.3-0.9-3.1-1.4-5.3-1.4c-2.3,0-4.1,0.5-5.3,1.4c-1,0.7-1.4,1.5-1.4,2.3c0,1,0.6,1.8,1.7,2.4c0.8,0.5,2.3,0.8,4.4,1
		c2.8,0.3,4.8,0.7,5.9,1c1.6,0.6,2.8,1.4,3.5,2.4c0.8,1,1.2,2.1,1.2,3.3c0,1.7-0.8,3.3-2.5,4.7c-1.7,1.4-4.1,2-7.4,2
		c-3.2,0-5.9-0.8-8-2.5c0,0.6,0,0.9-0.1,1.1c-0.1,0.2-0.2,0.3-0.4,0.4c-0.2,0.1-0.4,0.2-0.6,0.2c-0.3,0-0.5-0.1-0.7-0.3
		c-0.2-0.2-0.3-0.6-0.3-1v-4.2c0-0.5,0.1-0.8,0.3-1c0.2-0.2,0.4-0.3,0.7-0.3c0.3,0,0.5,0.1,0.7,0.3c0.2,0.2,0.3,0.5,0.3,0.8
		c0,0.7,0.2,1.4,0.6,1.9c0.6,0.8,1.5,1.4,2.7,1.9s2.8,0.8,4.6,0.8c2.7,0,4.7-0.5,6-1.5c1.3-1,2-2,2-3.1c0-1.3-0.7-2.3-2-3.1
		c-1.3-0.8-3.3-1.3-5.8-1.5c-2.5-0.3-4.4-0.6-5.5-1c-1.1-0.4-2-1.1-2.6-1.9c-0.6-0.8-0.9-1.8-0.9-2.7c0-1.8,0.9-3.2,2.6-4.2
		c1.7-1,3.8-1.6,6.2-1.6C209.5,36.9,211.8,37.6,213.5,38.9z"/>
	<path class="st0" d="M241.1,58.7v-3c-2.8,2.5-5.8,3.8-9.1,3.8c-2,0-3.5-0.5-4.6-1.6c-1.4-1.4-2-3.1-2-5V39.7h-2.8
		c-0.5,0-0.8-0.1-1-0.3c-0.2-0.2-0.3-0.4-0.3-0.8c0-0.3,0.1-0.5,0.3-0.7c0.2-0.2,0.6-0.3,1-0.3h4.8v15.3c0,1.3,0.4,2.4,1.3,3.3
		c0.8,0.9,1.9,1.3,3.2,1.3c3.3,0,6.4-1.5,9.2-4.6V39.7h-3.8c-0.5,0-0.8-0.1-1-0.3c-0.2-0.2-0.3-0.4-0.3-0.8c0-0.3,0.1-0.5,0.3-0.7
		c0.2-0.2,0.6-0.3,1-0.3h5.8v19.1h1.7c0.5,0,0.8,0.1,1,0.3c0.2,0.2,0.3,0.4,0.3,0.7c0,0.3-0.1,0.5-0.3,0.7c-0.2,0.2-0.6,0.3-1,0.3
		H241.1z"/>
	<path class="st0" d="M256.1,28.1v13.6c2.5-3.2,5.5-4.8,9-4.8c3,0,5.6,1.1,7.7,3.3c2.1,2.2,3.2,4.8,3.2,8c0,3.2-1.1,5.9-3.2,8.1
		c-2.2,2.2-4.7,3.3-7.7,3.3c-3.6,0-6.6-1.6-9-4.8v4h-4.8c-0.5,0-0.8-0.1-1-0.3c-0.2-0.2-0.3-0.4-0.3-0.7c0-0.3,0.1-0.6,0.3-0.7
		c0.2-0.2,0.6-0.3,1-0.3h2.8V30.2h-2.8c-0.5,0-0.8-0.1-1-0.3c-0.2-0.2-0.3-0.4-0.3-0.8c0-0.3,0.1-0.5,0.3-0.7c0.2-0.2,0.6-0.3,1-0.3
		H256.1z M273.9,48.2c0-2.6-0.9-4.8-2.7-6.6c-1.8-1.8-3.8-2.7-6.2-2.7s-4.5,0.9-6.2,2.7c-1.8,1.8-2.7,4-2.7,6.6s0.9,4.8,2.7,6.6
		c1.8,1.8,3.8,2.7,6.2,2.7s4.5-0.9,6.2-2.7C273,53,273.9,50.8,273.9,48.2z"/>
	<path class="st0" d="M303.8,48.2c0,3.1-1.1,5.8-3.4,8c-2.2,2.2-4.9,3.3-8.1,3.3c-3.2,0-5.9-1.1-8.1-3.3c-2.2-2.2-3.3-4.9-3.3-8
		c0-3.1,1.1-5.8,3.3-8c2.2-2.2,4.9-3.3,8.1-3.3c3.2,0,5.9,1.1,8.1,3.3C302.7,42.4,303.8,45.1,303.8,48.2z M301.7,48.2
		c0-2.6-0.9-4.8-2.7-6.6c-1.8-1.8-4-2.7-6.7-2.7c-2.6,0-4.8,0.9-6.7,2.7c-1.8,1.8-2.7,4-2.7,6.6c0,2.5,0.9,4.7,2.7,6.5
		c1.8,1.8,4,2.7,6.7,2.7c2.6,0,4.8-0.9,6.7-2.7C300.8,53,301.7,50.8,301.7,48.2z"/>
</g>
<g>
	<path class="st0" d="M9.1,13.2c0.5,0.2,0.9,0.4,1.2,0.6c0.1,0.1,0.2,0.2,0.2,0.3c0,0.1-0.1,0.2-0.2,0.3c-0.2,0.1-0.4,0.4-0.5,0.7
		c-0.5,1.1-1.3,2.3-2.2,3.5c-0.1,0.1-0.2,0.2-0.3,0.2c-0.1,0-0.1,0-0.2-0.1c-0.3-0.2-0.6-0.3-0.9-0.4c1.1-1.1,1.9-2.2,2.6-3.5
		C8.8,14.3,9,13.8,9.1,13.2z M14.4,9.3V7.5c0-1.1-0.1-2-0.3-2.7c0.6,0,1.2,0.1,1.6,0.2c0.2,0,0.2,0.1,0.2,0.3c0,0.1,0,0.2-0.1,0.3
		c-0.2,0.3-0.3,0.9-0.3,1.9v1.8h2.9c1.8,0,3.3,0,4.5-0.1c0,0,0.1,0,0.1,0c0.1,0,0.2,0.1,0.2,0.2c0,0.4,0,0.6,0,0.7
		c0,0.2-0.1,0.3-0.2,0.3c-1.3-0.1-2.8-0.1-4.6-0.1h-2.8v4.2l0,4.5c0,1-0.3,1.6-1,1.9c-0.7,0.3-1.5,0.5-2.4,0.6c0,0,0,0,0,0
		c-0.1,0-0.2-0.1-0.3-0.2c-0.1-0.3-0.4-0.7-0.7-0.9c1.1,0,2-0.1,2.6-0.4c0.3-0.1,0.4-0.3,0.5-0.5c0.1-0.2,0.1-0.4,0.1-0.8v-8.4h-3.5
		c-1.3,0-2.6,0-3.8,0.1c0,0,0,0,0,0c0,0,0,0,0,0c-0.1,0-0.2-0.1-0.2-0.3c0-0.4-0.1-0.8-0.1-1.1c1.2,0.1,2.6,0.1,4.1,0.1H14.4z
		 M19.3,14c0.3-0.2,0.5-0.4,0.8-0.5c0,0,0.1,0,0.1,0c0.1,0,0.1,0,0.2,0.1c1.1,1,2.1,2.3,3.1,4c0,0.1,0.1,0.1,0.1,0.2
		c0,0.1,0,0.1-0.1,0.2c-0.2,0.2-0.5,0.4-0.7,0.5c-0.1,0-0.1,0.1-0.2,0.1c-0.1,0-0.1,0-0.2-0.2C21.6,16.7,20.6,15.3,19.3,14z
		 M22.1,3.6c0.6,0,1.2,0.2,1.6,0.7c0.4,0.4,0.5,0.9,0.5,1.4c0,0.6-0.2,1.1-0.7,1.6c-0.4,0.4-0.9,0.6-1.4,0.6c-0.6,0-1.2-0.2-1.6-0.7
		C20.2,6.7,20,6.2,20,5.7c0-0.6,0.2-1.2,0.7-1.6C21.1,3.7,21.6,3.6,22.1,3.6z M22.1,4.3c-0.4,0-0.7,0.1-1,0.4
		c-0.2,0.3-0.4,0.6-0.4,0.9c0,0.4,0.2,0.7,0.5,1C21.5,6.9,21.8,7,22.1,7c0.4,0,0.7-0.2,1-0.5c0.2-0.3,0.3-0.6,0.3-0.9
		c0-0.4-0.1-0.8-0.4-1C22.8,4.4,22.5,4.3,22.1,4.3z"/>
	<path class="st0" d="M26.1,12.4c1,0.1,2.5,0.2,4.5,0.2h7c2,0,3.6,0,4.7-0.1c0.2,0,0.3,0.1,0.3,0.2v0.8c0,0.2-0.1,0.3-0.3,0.3
		c-0.8,0-1.7,0-2.9,0h-1.8h-8.6L26.6,14c-0.2,0-0.3-0.1-0.3-0.3C26.1,13.3,26.1,12.8,26.1,12.4z"/>
	<path class="st0" d="M50.3,10.7c2.5,0.7,4.9,1.7,7.2,3.1c0.1,0.1,0.2,0.1,0.2,0.2c0,0,0,0.1,0,0.1c-0.1,0.3-0.3,0.6-0.4,0.8
		c-0.1,0.1-0.1,0.1-0.2,0.1c-0.1,0-0.1,0-0.2-0.1c-2-1.3-4.2-2.3-6.6-3v5.6c0,0.1,0,1.5,0.1,4.2c0,0.2-0.1,0.3-0.2,0.3
		c-0.1,0-0.3,0-0.4,0c-0.2,0-0.3,0-0.4,0c-0.2,0-0.3-0.1-0.3-0.3c0.1-1.8,0.1-3.1,0.1-4.1V7c0-1.2-0.1-2.2-0.2-3
		c0.7,0.1,1.2,0.1,1.5,0.2c0.2,0,0.2,0.1,0.2,0.3c0,0.1,0,0.2-0.1,0.3c-0.1,0.3-0.2,1-0.2,2V10.7z"/>
	<path class="st0" d="M60.3,6.8c1.2,0.1,2.6,0.1,4.2,0.1h7.8c0.4,0,0.8-0.1,1-0.2c0.1,0,0.2-0.1,0.3-0.1c0.1,0,0.2,0,0.3,0.1
		c0.3,0.2,0.6,0.5,0.8,0.7c0.1,0.1,0.1,0.2,0.1,0.3c0,0.1,0,0.2-0.1,0.3c-0.2,0.2-0.4,0.4-0.5,0.7c-1,2.6-2.4,5-4.3,7.2
		c-1.9,2.1-4.1,3.9-6.6,5.3c-0.1,0.1-0.2,0.1-0.3,0.1c-0.1,0-0.2,0-0.3-0.1c-0.2-0.2-0.5-0.4-0.9-0.6c1.7-0.8,3.1-1.7,4.3-2.7
		c0.8-0.7,1.7-1.6,2.7-2.6c2-2.3,3.4-4.7,4.3-7.3h-8.6c-1.4,0-2.7,0-3.7,0.1c0,0-0.1,0-0.1,0c-0.2,0-0.3-0.1-0.3-0.3
		C60.4,7.2,60.3,6.9,60.3,6.8z"/>
	<path class="st0" d="M85.9,13.6C85,15,84,16.1,82.9,17c-1.3,1.1-2.5,2-3.7,2.7c-0.1,0.1-0.2,0.1-0.2,0.1c-0.1,0-0.1,0-0.2-0.1
		c-0.2-0.3-0.5-0.4-0.7-0.5c1.6-0.9,3-1.8,4.1-2.8c1.1-1,2.1-2.1,2.8-3.2h-3.6c-0.9,0-1.7,0-2.5,0.1c0,0-0.1,0-0.1,0
		c-0.1,0-0.2-0.1-0.2-0.2c0-0.4-0.1-0.6-0.1-0.9c0.7,0,1.7,0.1,2.8,0.1h4.3l-0.1-1.7c0-0.9-0.1-1.5-0.3-1.9c0.5,0,1,0.1,1.4,0.2
		c0.1,0,0.2,0.1,0.2,0.2c0,0.1,0,0.1-0.1,0.2c-0.1,0.2-0.2,0.5-0.2,1c0,0.2,0,0.3,0,0.6l0.1,1.5h2.1c1,0,2,0,3-0.1
		c0.1,0,0.2,0.1,0.2,0.2V13c0,0.1-0.1,0.2-0.2,0.2c-0.7,0-1.7,0-3,0h-2l0.3,6.4c0,0.2,0,0.3,0,0.5c0,0.5-0.1,0.8-0.2,1
		c-0.1,0.2-0.3,0.3-0.5,0.4c-0.7,0.3-1.4,0.4-2.2,0.4c-0.2,0-0.3-0.1-0.3-0.2c-0.1-0.4-0.3-0.7-0.5-0.9c0.9,0,1.6-0.1,2.1-0.2
		c0.2-0.1,0.4-0.2,0.5-0.3c0.1-0.1,0.1-0.3,0.1-0.6c0-0.1,0-0.1,0-0.2l-0.2-3.9L85.9,13.6z"/>
	<path class="st0" d="M98,5c0.6,0.1,1.2,0.2,1.6,0.3c0.1,0,0.2,0.1,0.2,0.3c0,0.1,0,0.1-0.1,0.2c-0.2,0.3-0.2,1-0.2,2.2v3.6
		c0,1,0,2,0.1,3c0,0.2-0.1,0.3-0.3,0.3h-0.8c-0.2,0-0.2-0.1-0.2-0.2c0,0,0,0,0-0.1c0-1.4,0.1-2.4,0.1-3V8C98.2,6.6,98.1,5.6,98,5z
		 M99.1,21.2c2.2-0.7,3.9-1.6,5-2.9c1.2-1.5,1.9-3.5,1.9-6V8.1c0-1.6-0.1-2.7-0.3-3.5c0.7,0.1,1.2,0.2,1.6,0.3
		c0.1,0.1,0.2,0.1,0.2,0.3c0,0.1,0,0.1-0.1,0.2c-0.2,0.3-0.2,1.2-0.2,2.6v4c0,2.9-0.7,5.2-2,6.7c-1.1,1.3-2.7,2.4-4.7,3.1
		c-0.1,0-0.2,0-0.2,0c-0.1,0-0.2-0.1-0.3-0.2C99.7,21.6,99.4,21.3,99.1,21.2z"/>
	<path class="st0" d="M122.1,10.8c-0.9,1.5-2.1,2.9-3.5,4.2c-1.4,1.2-3,2.4-4.8,3.4c-0.1,0.1-0.2,0.1-0.3,0.1c-0.1,0-0.2,0-0.2-0.1
		c-0.2-0.2-0.5-0.4-0.8-0.5c2-1,3.8-2.3,5.4-3.7c1.4-1.3,2.6-2.6,3.5-4h-4.9c-0.9,0-2.1,0-3.4,0.1c-0.1,0-0.2-0.1-0.2-0.3
		c0-0.1-0.1-0.4-0.1-1c1.2,0.1,2.4,0.1,3.7,0.1h5.6l-0.1-2.3c-0.1-1-0.2-1.7-0.3-2.4c0.7,0,1.2,0.1,1.6,0.2c0.1,0,0.2,0.1,0.2,0.2
		c0,0.1,0,0.2-0.1,0.3C123,5.2,123,5.7,123,6.4c0,0.2,0,0.4,0,0.6l0.1,2.2h2.6c1.3,0,2.6,0,3.9-0.1c0.2,0,0.3,0.1,0.3,0.2V10
		c0,0.1-0.1,0.2-0.3,0.2c-1.4,0-2.7-0.1-3.9-0.1h-2.5l0.4,8.5c0,0.1,0,0.2,0,0.3c0,1-0.3,1.7-1,2c-0.8,0.3-1.7,0.5-2.6,0.5
		c-0.2,0-0.3-0.1-0.4-0.2c-0.1-0.4-0.4-0.7-0.7-0.9c0,0,0.1,0,0.1,0c0.1,0,0.2,0,0.2,0c1,0,1.8-0.1,2.4-0.3c0.3-0.1,0.5-0.2,0.6-0.4
		c0.1-0.2,0.1-0.5,0.1-0.9v-0.3l-0.3-5.9L122.1,10.8z"/>
	<path class="st0" d="M145.9,9.6h0.8c1.6,0,2.8,0,3.6-0.1c0.2,0,0.3,0.1,0.3,0.2v0.7c0,0.2-0.1,0.2-0.2,0.2c0,0-0.1,0-0.1,0
		c-0.8,0-2,0-3.6,0h-0.8c0,3-0.5,5.3-1.5,7c-1.1,1.9-2.9,3.3-5.4,4.2c-0.1,0-0.2,0.1-0.2,0.1c-0.1,0-0.2,0-0.2-0.1
		c-0.2-0.2-0.5-0.4-0.9-0.6c2.8-0.8,4.7-2.2,5.8-4.1c0.9-1.6,1.3-3.7,1.3-6.5h-5.9v1.2c0,0.5,0,1.1,0,1.9c0,1,0,1.5,0,1.6
		s-0.1,0.2-0.2,0.2c-0.1,0-0.3,0-0.4,0c-0.2,0-0.3,0-0.4,0c-0.1,0-0.2-0.1-0.2-0.2c0-2.3,0.1-3.4,0.1-3.5v-1.2h-1.3
		c-1.2,0-2.2,0-3.3,0.1c0,0-0.1,0-0.1,0c-0.1,0-0.2-0.1-0.2-0.3c0-0.1,0-0.4-0.1-0.9c1.1,0.1,2.3,0.1,3.6,0.1h1.3V7.7
		c0-1.2-0.1-2.2-0.3-3c0.7,0.1,1.2,0.1,1.5,0.2c0.1,0,0.2,0.1,0.2,0.2c0,0.1,0,0.2-0.1,0.3c-0.1,0.2-0.2,1-0.2,2.2v1.9h5.9V7.7
		c0-1.5-0.1-2.7-0.2-3.4c0.4,0,0.8,0.1,1.4,0.2c0.2,0.1,0.3,0.1,0.3,0.3c0,0.1,0,0.2-0.1,0.2c-0.1,0.3-0.2,1.1-0.2,2.5V9.6z"/>
	<path class="st0" d="M161.7,9.7v8c0,1.2,0,2.5,0.1,3.8c0,0.2-0.1,0.2-0.2,0.2c-0.1,0-0.3,0-0.5,0c-0.2,0-0.3,0-0.5,0
		c-0.1,0-0.2-0.1-0.2-0.2c0-1.2,0.1-2.5,0.1-3.7v-7c-2.1,1.9-4.5,3.7-7.2,5.2c-0.1,0-0.1,0.1-0.2,0.1c-0.1,0-0.2,0-0.2-0.1
		c-0.2-0.2-0.5-0.4-0.8-0.6c2.7-1.5,5-3,6.8-4.7c1.8-1.6,3.2-3,4.4-4.4c0.7-0.8,1.1-1.5,1.3-2.2c0.6,0.3,1,0.6,1.2,0.8
		c0.1,0.1,0.1,0.2,0.1,0.3c0,0.1-0.1,0.2-0.2,0.3c-0.3,0.2-0.7,0.5-1.2,1.1C163.7,7.6,162.8,8.7,161.7,9.7z"/>
	<path class="st0" d="M174.8,10.7c2.5,0.7,4.9,1.7,7.2,3.1c0.1,0.1,0.2,0.1,0.2,0.2c0,0,0,0.1,0,0.1c-0.1,0.3-0.3,0.6-0.4,0.8
		c-0.1,0.1-0.1,0.1-0.2,0.1c-0.1,0-0.1,0-0.2-0.1c-2-1.3-4.2-2.3-6.6-3v5.6c0,0.1,0,1.5,0.1,4.2c0,0.2-0.1,0.3-0.2,0.3
		c-0.1,0-0.3,0-0.4,0c-0.2,0-0.3,0-0.4,0c-0.2,0-0.3-0.1-0.3-0.3c0.1-1.8,0.1-3.1,0.1-4.1V7c0-1.2-0.1-2.2-0.2-3
		c0.7,0.1,1.2,0.1,1.5,0.2c0.2,0,0.2,0.1,0.2,0.3c0,0.1,0,0.2-0.1,0.3c-0.1,0.3-0.2,1-0.2,2V10.7z"/>
</g>
<text transform="matrix(1 0 0 1 464.7118 58.7372)"><tspan x="0" y="0" class="st0" style="font-family:'CourierNewPSMT'; font-size:50px; letter-spacing:-1;">Toru</tspan><tspan x="115" y="0" class="st0" style="font-family:'CourierNewPSMT'; font-size:50px; letter-spacing:-5;"> </tspan><tspan x="140" y="0" class="st0" style="font-family:'CourierNewPSMT'; font-size:50px; letter-spacing:-1;">Otsubo</tspan></text>
<text transform="matrix(1 0 0 1 466.712 21.3575)" class="st0" style="font-family:'YuGothic-Regular'; font-size:22px;">ポートフォリオサイト</text>
</svg>
